HIERARCHY
ROOT Hips
{
	OFFSET 0.00000 0.00000 0.00000
	CHANNELS 6 Xposition Yposition Zposition Zrotation Yrotation Xrotation 
	JOINT LHipJoint
	{
		OFFSET 0 0 0
		CHANNELS 3 Zrotation Yrotation Xrotation
		JOINT LeftUpLeg
		{
			OFFSET 1.37590 -1.78394 0.89329
			CHANNELS 3 Zrotation Yrotation Xrotation
			JOINT LeftLeg
			{
				OFFSET 2.47928 -6.81178 0.00000
				CHANNELS 3 Zrotation Yrotation Xrotation
				JOINT LeftFoot
				{
					OFFSET 2.63345 -7.23535 0.00000
					CHANNELS 3 Zrotation Yrotation Xrotation
					JOINT LeftToeBase
					{
						OFFSET 0.23938 -0.65768 2.27012
						CHANNELS 3 Zrotation Yrotation Xrotation
						End Site
						{
							OFFSET 0.00000 -0.00000 1.18363
						}
					}
				}
			}
		}
	}
	JOINT RHipJoint
	{
		OFFSET 0 0 0
		CHANNELS 3 Zrotation Yrotation Xrotation
		JOINT RightUpLeg
		{
			OFFSET -1.33617 -1.78394 0.89329
			CHANNELS 3 Zrotation Yrotation Xrotation
			JOINT RightLeg
			{
				OFFSET -2.56922 -7.05888 0.00000
				CHANNELS 3 Zrotation Yrotation Xrotation
				JOINT RightFoot
				{
					OFFSET -2.56568 -7.04915 0.00000
					CHANNELS 3 Zrotation Yrotation Xrotation
					JOINT RightToeBase
					{
						OFFSET -0.27533 -0.75646 2.18105
						CHANNELS 3 Zrotation Yrotation Xrotation
						End Site
						{
							OFFSET -0.00000 -0.00000 1.15233
						}
					}
				}
			}
		}
	}
	JOINT LowerBack
	{
		OFFSET 0 0 0
		CHANNELS 3 Zrotation Yrotation Xrotation
		JOINT Spine
		{
			OFFSET 0.06190 2.15152 -0.00935
			CHANNELS 3 Zrotation Yrotation Xrotation
			JOINT Spine1
			{
				OFFSET 0.06334 2.15332 0.00872
				CHANNELS 3 Zrotation Yrotation Xrotation
				JOINT Neck
				{
					OFFSET 0 0 0
					CHANNELS 3 Zrotation Yrotation Xrotation
					JOINT Neck1
					{
						OFFSET -0.04202 1.66908 0.23524
						CHANNELS 3 Zrotation Yrotation Xrotation
						JOINT Head
						{
							OFFSET 0.07510 1.69357 -0.24440
							CHANNELS 3 Zrotation Yrotation Xrotation
							End Site
							{
								OFFSET 0.02556 1.71719 -0.11000
							}
						}
					}
				}
				JOINT LeftShoulder
				{
					OFFSET 0 0 0
					CHANNELS 3 Zrotation Yrotation Xrotation
					JOINT LeftArm
					{
						OFFSET 3.67168 1.26306 -0.41342
						CHANNELS 3 Zrotation Yrotation Xrotation
						JOINT LeftForeArm
						{
							OFFSET 4.68510 -0.00000 -0.00000
							CHANNELS 3 Zrotation Yrotation Xrotation
							JOINT LeftHand
							{
								OFFSET 3.39626 -0.00000 -0.00000
								CHANNELS 3 Zrotation Yrotation Xrotation
								JOINT LeftFingerBase
								{
									OFFSET 0 0 0
									CHANNELS 3 Zrotation Yrotation Xrotation
									JOINT LeftHandIndex1
									{
										OFFSET 0.48608 -0.00000 -0.00000
										CHANNELS 3 Zrotation Yrotation Xrotation
										End Site
										{
											OFFSET 0.39189 -0.00000 -0.00000
										}
									}
								}
								JOINT LThumb
								{
									OFFSET 0 0 0
									CHANNELS 3 Zrotation Yrotation Xrotation
									End Site
									{
										OFFSET 0.39787 -0.00000 0.39787
									}
								}
							}
						}
					}
				}
				JOINT RightShoulder
				{
					OFFSET 0 0 0
					CHANNELS 3 Zrotation Yrotation Xrotation
					JOINT RightArm
					{
						OFFSET -3.04136 1.42992 -0.76390
						CHANNELS 3 Zrotation Yrotation Xrotation
						JOINT RightForeArm
						{
							OFFSET -5.55576 -0.00000 -0.00000
							CHANNELS 3 Zrotation Yrotation Xrotation
							JOINT RightHand
							{
								OFFSET -3.32774 -0.00000 -0.00000
								CHANNELS 3 Zrotation Yrotation Xrotation
								JOINT RightFingerBase
								{
									OFFSET 0 0 0
									CHANNELS 3 Zrotation Yrotation Xrotation
									JOINT RightHandIndex1
									{
										OFFSET -0.50763 -0.00000 -0.00000
										CHANNELS 3 Zrotation Yrotation Xrotation
										End Site
										{
											OFFSET -0.40926 -0.00000 -0.00000
										}
									}
								}
								JOINT RThumb
								{
									OFFSET 0 0 0
									CHANNELS 3 Zrotation Yrotation Xrotation
									End Site
									{
										OFFSET -0.41551 -0.00000 0.41551
									}
								}
							}
						}
					}
				}
			}
		}
	}
}
MOTION
Frames: 5
Frame Time: 0.05
0.00 0.00 0.00 -477.4680 -81.1979 483.5030 0.0000 0.0000 0.0000 -5.6215 -10.2298 -26.5555 0.9269 6.1332 17.1714 -0.0528 4.9967 -4.9049 0.4589 -4.3457 -12.0513 0.0000 0.0000 0.0000 31.7958 -0.0783 1.1247 -1.2282 -7.0286 19.8001 -0.5954 -6.8271 -18.6412 -0.0031 -0.3607 0.9912 10.5522 1.8131 -3.2614 2.7240 2.1492 -4.7739 -3.0305 0.6956 -2.8792 -8.2618 -4.2480 -1.0350 12.2495 -5.1087 -28.1186 5.9640 -3.2159 -7.8498 -0.0000 -0.0000 0.0000 -65.4052 -34.0966 37.0211 72.2194 -58.7711 -44.6651 -0.0000 -0.0000 14.3408 18.5961 15.1786 5.0345 -7.1250 0.0000 -0.0000 -8.4596 45.7799 -0.1640 -0.0000 -0.0000 0.0000 -22.1827 70.4778 -64.3831 -65.6746 57.6416 -39.1004 0.0000 -0.0000 -11.5941 -23.8150 -19.5086 8.3847 7.1250 -0.0000 -0.0000 4.5613 -51.0935 -0.6860
0.00 0.00 0.00 -494.4960 -81.3201 499.2730 0.0000 0.0000 0.0000 -9.3860 -10.4480 -23.3545 1.0141 6.4069 17.9698 -0.0318 3.7446 -3.5002 0.0999 -2.0387 -5.6127 0.0000 0.0000 0.0000 27.5406 -1.1413 -2.2882 -3.5938 -11.5993 34.3290 -0.1754 -7.0029 -13.3588 -0.0813 1.8395 -5.0624 8.0796 1.3259 -2.9406 2.5784 1.5861 -4.7425 -1.8360 0.4951 -3.1278 -8.2279 -3.5098 0.3806 12.5646 -4.2617 -31.5225 6.3527 -2.9615 -9.4092 0.0000 -0.0000 0.0000 -45.7128 -47.2223 22.9033 80.2305 -59.6363 -51.5497 -0.0000 -0.0000 12.6345 20.5684 15.5607 5.7482 -7.1250 0.0000 -0.0000 -6.7208 46.4328 -0.2387 0.0000 -0.0000 0.0000 -29.4929 63.9253 -63.7896 -68.4227 58.1656 -41.4286 0.0000 -0.0000 -2.2938 -25.8539 -18.1969 8.6051 7.1250 -0.0000 -0.0000 2.2240 -50.0333 -0.2761
0.00 0.00 0.00 -504.9410 -81.7407 508.6140 0.0000 0.0000 0.0000 -12.8726 -9.5378 -19.6829 1.2094 6.9765 19.6457 0.0135 2.0415 -3.8321 0.0089 -0.6107 -1.6782 0.0000 0.0000 0.0000 24.2296 -1.0570 -7.0973 -6.0246 -14.4521 45.0802 0.2263 -9.5146 -8.2574 -0.0496 1.4368 -3.9516 6.0930 0.8659 -2.4358 2.5876 1.0528 -4.8979 -0.7359 0.2850 -3.6387 -8.3556 -3.0632 0.7105 12.6417 -3.7241 -32.5099 6.4771 -2.7391 -9.9040 0.0000 0.0000 0.0000 -24.0499 -56.3736 3.1661 76.5224 -59.3024 -48.3554 -0.0000 -0.0000 9.4107 21.7713 16.8139 6.5901 -7.1250 0.0000 -0.0000 -5.8788 47.9166 -0.4244 0.0000 0.0000 0.0000 -35.8888 60.2930 -66.1847 -65.6393 57.6344 -39.0706 0.0000 0.0000 0.4637 -25.2185 -18.0318 8.2943 7.1250 -0.0000 -0.0000 2.8168 -49.7492 -0.3300
0.00 0.00 0.00 -516.6360 -82.2648 519.3140 0.0000 0.0000 0.0000 -16.7495 -7.8913 -14.1344 1.2009 6.9528 19.5756 0.0715 0.4964 -5.2573 0.0023 0.3125 0.8586 0.0000 0.0000 0.0000 20.7038 -0.2825 -14.0339 -8.5214 -16.4897 54.4198 0.5160 -12.6075 -4.8854 -0.0013 0.2342 -0.6435 3.8992 0.3170 -1.8121 2.7035 0.3807 -5.3443 0.6115 0.0157 -4.4975 -8.6050 -2.5858 0.7460 12.6023 -3.1438 -32.9240 6.5176 -2.4543 -10.1420 0.0000 -0.0000 0.0000 10.3735 -61.3533 -30.9120 64.6090 -57.4180 -38.2014 -0.0000 -0.0000 5.3976 23.0836 18.7592 7.8044 -7.1250 0.0000 -0.0000 -5.0901 50.1752 -0.6508 0.0000 -0.0000 0.0000 -44.2033 56.7703 -70.9661 -59.6376 56.2126 -34.0397 0.0000 0.0000 0.9427 -23.4035 -18.7480 7.9195 7.1250 -0.0000 -0.0000 4.7724 -50.2160 -0.6148
0.00 0.00 0.00 -525.2200 -82.6242 527.5510 0.0000 0.0000 0.0000 -19.4048 -6.0410 -9.1299 0.9989 6.3602 17.8330 0.1383 -0.4320 -6.8831 0.0011 0.2127 0.5845 0.0000 0.0000 0.0000 18.3352 0.6916 -19.9355 -9.1914 -16.9294 56.7499 0.6930 -14.5554 -5.2998 -0.0126 -0.7240 1.9897 2.4712 -0.1203 -1.3369 2.8519 -0.1873 -5.9894 1.5902 -0.2183 -5.4478 -8.7377 -2.2529 0.7070 12.3635 -2.7827 -33.0817 6.4467 -2.2542 -10.2512 -0.0000 -0.0000 0.0000 37.6498 -59.2272 -59.1095 52.6728 -54.0182 -28.3231 -0.0000 -0.0000 3.1582 24.2914 20.8148 9.1116 -7.1250 0.0000 -0.0000 -4.4397 52.5665 -0.8281 -0.0000 -0.0000 0.0000 -51.4602 53.9133 -75.9580 -53.8563 54.4372 -29.2834 0.0000 -0.0000 -0.0908 -22.0603 -20.5310 8.0891 7.1250 -0.0000 -0.0000 6.6076 -51.8645 -1.1209
